<?xml version="1.0" encoding="utf-8"?>
<!-- Generator: Adobe Illustrator 25.0.0, SVG Export Plug-In . SVG Version: 6.00 Build 0)  -->
<svg version="1.1" id="Layer_1" xmlns="http://www.w3.org/2000/svg" xmlns:xlink="http://www.w3.org/1999/xlink" x="0px" y="0px"
	 viewBox="0 0 122.9 122.9" style="enable-background:new 0 0 122.9 122.9;" xml:space="preserve">
<style type="text/css">
	.st0{fill:#FFFFFF;}
	.st1{fill:#069495;}
	.st2{fill:#FFFFFF;stroke:#069495;stroke-miterlimit:10;}
	.st3{fill-rule:evenodd;clip-rule:evenodd;fill:#FFFFFF;}
</style>
<g>
	<ellipse class="st0" cx="61.5" cy="61.5" rx="57.7" ry="54.1"/>
	<g>
		<g>
			<path class="st1" d="M86.2,28.9H19.8c-2.6,0-4.1,2.9-2.3,6L26.1,54v34.2c0,8.7,5,16.1,11.8,16.1h48.2c6.9,0,12.6-7.4,12.6-16.1
				V45C98.8,36.2,92.9,28.9,86.2,28.9L86.2,28.9z"/>
			<path class="st2" d="M87.7,27H21.3c-2.6,0-4.1,2.9-2.3,6l8.6,19.2v34.2c0,8.7,5,16.1,11.8,16.1h48.2c6.9,0,12.6-7.4,12.6-16.1
				V43.2C100.3,34.4,94.5,27,87.7,27L87.7,27z"/>
		</g>
		<path class="st1" d="M85.6,45.6c5.3,4.5,8.5,10.7,8.3,17.5l0,0c-0.2,6.8-3.8,12.7-9.4,17c-5.5,4.1-12.9,6.6-21,6.3
			c-2.1-0.1-4.1-0.3-6-0.6c-1.6-0.3-3.2-0.7-4.7-1.3l-14.6,4.4l4.4-10.4c-2.4-2.1-4.3-4.5-5.7-7.2c-1.5-3.1-2.4-6.4-2.3-9.9
			c0.2-6.8,3.8-12.7,9.4-17C55.8,35.5,74.4,36.1,85.6,45.6z"/>
		<path class="st3" d="M65,40c15.2,0.5,27.2,10.9,26.8,23.2c-0.4,12.4-13,22.1-28.1,21.6c-3.8-0.1-7.5-0.8-10.7-2.1l-11,3.4l3.2-7.8
			c-5.3-4.3-8.5-10.2-8.3-16.7C37.2,49.2,49.8,39.5,65,40L65,40z"/>
		<path class="st1" d="M52.5,69c-0.9,0-1.6-0.7-1.6-1.6c0-0.9,0.7-1.6,1.6-1.6h20.2c0.9,0,1.6,0.7,1.6,1.6c0,0.9-0.7,1.6-1.6,1.6
			H52.5z M52.5,57.9c-0.9,0-1.6-0.7-1.6-1.6c0-0.9,0.7-1.6,1.6-1.6h28.9c0.9,0,1.6,0.7,1.6,1.6c0,0.9-0.7,1.6-1.6,1.6H52.5z"/>
	</g>
</g>
</svg>
